<svg xmlns="http://www.w3.org/2000/svg" xmlns:xlink="http://www.w3.org/1999/xlink" width="60px" height="60px" viewBox="0 0 1200 1200">
    <g id="aeb0cc7a-2dd2-4e27-9413-ae79e2c8fcba">
<rect style="stroke: rgb(193,193,193); stroke-opacity: 1.00; stroke-width: 0; stroke-dasharray: none; stroke-linecap: butt; stroke-dashoffset: 0; stroke-linejoin: miter; stroke-miterlimit: 4; fill: rgb(26,46,74); fill-opacity: 1.00; fill-rule: nonzero; opacity: 1;" x="-600" y="-600" rx="0" ry="0" width="1200" height="1200" transform="matrix(1 0 0 1 600 600)"></rect>
</g>
<g id="2ff73996-d002-458b-8010-d84b4481e2b0">
<g style="">
		<g id="2ff73996-d002-458b-8010-d84b4481e2b0-child-0">
<path style="stroke: none; stroke-width: 0; stroke-dasharray: none; stroke-linecap: butt; stroke-dashoffset: 0; stroke-linejoin: miter; stroke-miterlimit: 4; fill: rgb(247,244,240); fill-opacity: 1.00; fill-rule: nonzero; opacity: 1;" d="M0,1022.17882v-522.95152h126.34665l1.02971,126.34237l123.91042,-1.00989l-1.02148,-125.33247h125.33653v-123.91454h-126.34645l-1.02971,-126.34234l-123.91042,1.00989l1.02148,125.33245h-125.33672v-208.5924h320.18588c69.25137,0 126.68929,11.81349 172.31377,35.44042c45.62443,23.62698 79.43538,55.40115 101.43288,95.32256c21.9975,39.92136 32.99625,85.54585 32.99625,136.87335c0,47.25386 -10.59136,90.84152 -31.77412,130.76289c-21.18281,39.92136 -54.58641,72.30657 -100.2109,97.15564c-45.62443,24.84901 -103.87705,37.27355 -174.75789,37.27355h-155.20465v322.63z" stroke-linecap="round"></path>
</g>
</g>
</g>
<g style="" id="7978782f-3e0f-4abb-a696-8d17d50ff560">
<g style=""><path d="M-135.66852 31.41400L-135.66852 -38.58600L-112.26852 -38.58600Q-100.06852 -38.58600 -92.11852 -34.23600Q-84.16852 -29.88600 -80.31852 -22.03600Q-76.46852 -14.18600 -76.46852 -3.58600Q-76.46852 7.01400 -80.31852 14.86400Q-84.16852 22.71400 -92.06852 27.06400Q-99.96852 31.41400 -112.26852 31.41400ZM-122.16852 19.81400L-112.96852 19.81400Q-104.36852 19.81400 -99.41852 17.01400Q-94.46852 14.21400 -92.36852 8.96400Q-90.26852 3.71400 -90.26852 -3.58600Q-90.26852 -10.98600 -92.36852 -16.23600Q-94.46852 -21.48600 -99.41852 -24.28600Q-104.36852 -27.08600 -112.96852 -27.08600L-122.16852 -27.08600Z" fill="rgb(232,114,12)" fill-opacity="1.00" transform="matrix(3.686962 0 0 3.686962 674.355333 860.752604) translate(0 11.168993499999992)"></path><path d="M-67.46852 31.41400L-67.46852 -18.98600L-53.96852 -18.98600L-53.96852 31.41400ZM-60.66852 -25.88600Q-64.26852 -25.88600 -66.61852 -28.03600Q-68.96852 -30.18600 -68.96852 -33.48600Q-68.96852 -36.78600 -66.61852 -38.93600Q-64.26852 -41.08600 -60.66852 -41.08600Q-56.96852 -41.08600 -54.61852 -38.93600Q-52.26852 -36.78600 -52.26852 -33.48600Q-52.26852 -30.18600 -54.61852 -28.03600Q-56.96852 -25.88600 -60.66852 -25.88600Z" fill="rgb(232,114,12)" fill-opacity="1.00" transform="matrix(3.686962 0 0 3.686962 674.355333 860.752604) translate(0 11.168993499999992)"></path><path d="M-42.86852 31.41400L-42.86852 -18.98600L-30.86852 -18.98600L-29.56852 -9.68600L-29.56852 -9.68600Q-27.76852 -12.98600 -25.01852 -15.28600Q-22.26852 -17.58600 -18.71852 -18.88600Q-15.16852 -20.18600 -10.86852 -20.18600L-10.86852 -5.88600L-15.46852 -5.88600Q-18.46852 -5.88600 -21.01852 -5.18600Q-23.56852 -4.48600 -25.46852 -2.93600Q-27.36852 -1.38600 -28.36852 1.31400Q-29.36852 4.01400 -29.36852 8.11400L-29.36852 31.41400Z" fill="rgb(232,114,12)" fill-opacity="1.00" transform="matrix(3.686962 0 0 3.686962 674.355333 860.752604) translate(0 11.168993499999992)"></path><path d="M18.93148 32.61400Q11.33148 32.61400 5.48148 29.36400Q-0.36852 26.11400 -3.61852 20.26400Q-6.86852 14.41400 -6.86852 6.71400Q-6.86852 -1.18600 -3.61852 -7.23600Q-0.36852 -13.28600 5.43148 -16.73600Q11.23148 -20.18600 18.93148 -20.18600Q26.43148 -20.18600 32.03148 -16.88600Q37.63148 -13.58600 40.73148 -7.98600Q43.83148 -2.38600 43.83148 4.71400Q43.83148 5.71400 43.83148 6.96400Q43.83148 8.21400 43.63148 9.51400L2.73148 9.51400L2.73148 1.31400L30.23148 1.31400Q29.93148 -3.58600 26.78148 -6.38600Q23.63148 -9.18600 18.93148 -9.18600Q15.53148 -9.18600 12.63148 -7.63600Q9.73148 -6.08600 8.08148 -2.88600Q6.43148 0.31400 6.43148 5.21400L6.43148 8.11400Q6.43148 12.21400 7.98148 15.26400Q9.53148 18.31400 12.33148 19.96400Q15.13148 21.61400 18.83148 21.61400Q22.53148 21.61400 24.98148 20.01400Q27.43148 18.41400 28.63148 15.91400L42.43148 15.91400Q41.03148 20.61400 37.73148 24.41400Q34.43148 28.21400 29.63148 30.41400Q24.83148 32.61400 18.93148 32.61400Z" fill="rgb(232,114,12)" fill-opacity="1.00" transform="matrix(3.686962 0 0 3.686962 674.355333 860.752604) translate(0 11.168993499999992)"></path><path d="M85.43148 31.41400L63.93148 3.81400L83.23148 -18.98600L99.13148 -18.98600L74.23148 9.51400L74.23148 -1.18600L102.23148 31.41400ZM52.43148 31.41400L52.43148 -40.58600L65.93148 -40.58600L65.93148 31.41400Z" fill="rgb(232,114,12)" fill-opacity="1.00" transform="matrix(3.686962 0 0 3.686962 674.355333 860.752604) translate(0 11.168993499999992)"></path><path d="M130.43148 31.41400Q125.13148 31.41400 121.18148 29.76400Q117.23148 28.11400 115.03148 24.26400Q112.83148 20.41400 112.83148 13.71400L112.83148 -7.68600L104.23148 -7.68600L104.23148 -18.98600L112.83148 -18.98600L114.33148 -32.68600L126.33148 -32.68600L126.33148 -18.98600L139.63148 -18.98600L139.63148 -7.68600L126.33148 -7.68600L126.33148 13.91400Q126.33148 17.31400 127.83148 18.61400Q129.33148 19.91400 132.93148 19.91400L139.53148 19.91400L139.53148 31.41400Z" fill="rgb(232,114,12)" fill-opacity="1.00" transform="matrix(3.686962 0 0 3.686962 674.355333 860.752604) translate(0 11.168993499999992)"></path></g></g>

  </svg>
