<svg width="760" height="200" viewBox="0 0 760 200" fill="none" xmlns="http://www.w3.org/2000/svg">
<g clip-path="url(#clip0_3001_2)">
<path d="M249.851 197.232C243.231 194.325 236.222 185.444 235.063 178.511C233.773 170.815 235.431 163.46 239.905 156.933L244.131 150.796L241.509 145.016C237.37 135.907 238.139 128.049 244.109 118.47L246.893 113.988L242.95 107.916C237.327 99.2459 235.864 90.0237 238.215 77.8952C241.303 61.9837 249.656 51.3652 260.36 49.7578C263.144 49.3356 274.205 49.5629 284.931 50.2611L304.432 51.5113L304.8 55.4242C305.006 57.5674 304.844 62.5682 304.443 66.5298L303.728 73.755L299.47 73.138L295.223 72.5372V84.4059C295.223 98.6776 293.62 105.026 288.224 112.121C282.461 119.704 279.85 120.954 267.597 122.009C257.51 122.886 256.741 123.194 256.427 126.49C255.907 131.929 258.843 133.228 274.184 134.316C281.876 134.852 290.261 136.086 292.796 137.06C301.333 140.291 306.133 152.874 304.529 167.844C302.991 182.294 296.902 191.159 284.638 196.842C275.917 200.885 258.55 201.08 249.851 197.232ZM0 69.1779H20.2594V84.3897L20.5844 95.3492H36.0384V69.1779H41.7002H56.4209L56.6353 62.4151L56.4209 56.1956H36.0384V32.0278H20.5844L20.2594 42.1754V56.1956H0V42.1754C0 39.2691 0 34.6743 0 30.2418C0 25.8742 0 15.7915 0 15.7915L21.1261 15.8077C39.0345 15.8077 43.1513 16.2786 48.1566 18.8764C55.7728 22.838 63.4649 33.554 66.6717 44.6758C70.0627 56.4471 70.0952 75.8657 66.7367 87.2635C63.9415 96.7455 57.9829 106.536 52.3276 110.904C47.4957 114.638 34.7442 117.625 26.543 116.943L20.5844 116.456L19.9777 157.859H0.541694L0 69.1779ZM183.017 156.641C174.165 151.884 168.207 143.344 163.841 129.169C161.815 122.594 161.436 118.567 161.468 104.279C161.501 89.5853 161.869 86.1108 164.144 79.1129C170.103 60.8309 180.731 50.6508 195.172 49.433C202.875 48.7836 204.739 49.1895 209.798 52.6641C221.78 60.8796 227.912 75.7033 228.876 98.7426L229.44 112.397H205.519C192.355 112.397 181.327 113.03 181.012 113.826C180.687 114.605 181.532 118.437 182.887 122.35C185.833 130.809 192.637 136.768 199.3 136.719C201.705 136.687 206.602 134.803 210.177 132.53C213.752 130.257 217.371 128.26 218.216 128.098C219.061 127.952 221.217 130.923 223.015 134.706L226.287 141.59L223.828 145.503C222.485 147.646 218.389 151.429 214.738 153.881C205.909 159.823 191.305 161.09 183.017 156.641ZM331.517 157.323C325.287 154.271 318.581 147.159 315.407 140.275C309.936 128.39 308.841 122.431 308.82 104.279C308.798 84.682 310.51 77.0022 317.508 65.3933C324.041 54.5637 330.791 50.2286 342.351 49.433C351.722 48.7836 352.383 48.9784 359.143 54.2227C370.594 63.1202 375.394 77.2133 375.394 101.925V112.397H352.166C339.393 112.397 328.678 113.014 328.364 113.777C327.4 116.115 332.416 129.056 335.666 132.595C340.346 137.71 351.299 137.158 359.251 131.394C362.577 128.991 365.546 127.01 365.838 127.01C366.12 127.01 367.951 130.338 369.901 134.414C373.335 141.558 373.39 141.915 371.526 145C370.464 146.753 366.434 150.52 362.577 153.361C356.51 157.859 354.257 158.606 345.709 158.995C339.685 159.271 334.16 158.622 331.517 157.323ZM84.5042 74.242L74.2121 73.2516V52.5017L84.5042 51.5113L85.0893 39.2691C85.8476 23.2764 88.4911 16.6683 96.4865 10.807C101.849 6.86155 103.279 6.53683 111.871 7.17004C123.983 8.06304 126.366 9.83279 125.153 16.993C124.665 19.8993 123.95 24.3155 123.582 26.7997C122.921 31.1835 122.759 31.2809 117.537 30.2418C109.823 28.7156 105.955 31.5082 104.493 39.6426C102.499 50.7319 102.965 51.4463 112.412 51.9821L120.798 52.453V73.3003L104.005 74.242L103.431 157.859H85.0784L84.5042 74.242ZM139.692 157.843C135.207 155.764 131.653 149.708 130.483 142.191C129.952 138.749 129.508 107.267 129.486 72.2125L129.465 8.48518H148.966V69.9882C148.966 122.821 148.933 132.059 151.609 134.414C152.205 134.949 152.942 135.128 153.841 135.372C155.607 135.859 156.192 137.872 156.972 146.136C157.503 151.738 157.655 156.738 157.308 157.258C156.16 158.979 143.083 159.417 139.692 157.843ZM279.276 176.758C283.718 173.933 286.859 168.688 286.372 164.889C285.733 159.937 280.327 157.485 268.171 156.625L256.6 155.797L254.249 160.294C250.382 167.665 251.736 173.153 258.41 177.147C262.397 179.534 275.278 179.291 279.276 176.758ZM274.725 97.9145C277.282 94.0665 277.889 91.761 277.889 85.8834C277.889 79.7299 277.369 77.9277 274.552 74.3882C268.875 67.228 261.042 69.0464 257.857 78.2686C252.028 95.1706 265.831 111.244 274.725 97.9145ZM209.441 92.0208C211.412 91.0303 210.069 85.0716 206.624 79.5513C201.239 70.9298 192.41 69.8258 186.321 76.986C183.396 80.4443 179.875 90.3647 180.785 92.589C181.283 93.7743 206.927 93.2709 209.441 92.0208ZM356.976 88.6923C356.976 83.5941 351.028 74.1122 346.847 72.5372C339.61 69.8095 330.812 77.197 328.862 87.637L327.876 92.9137H356.976V88.6923Z" fill="#F7F4F0"/>
<path d="M588.445 156.613C581.88 153.966 574.286 147.147 570.591 140.604C555.391 113.684 560.418 67.7841 580.233 52.6032C585.412 48.6416 588.175 47.6837 595.975 47.1154C604.025 46.5471 606.267 46.9855 611.099 50.1029C622.475 57.4254 629.69 76.7141 629.69 99.7533V110.128H606.04C593.028 110.128 582.097 110.55 581.75 111.086C581.403 111.606 581.598 114.122 582.205 116.688C583.765 123.442 590.916 132.469 595.758 133.833C601.208 135.359 610.027 132.453 615.422 127.339L619.788 123.215L623.731 131.447C627.48 139.289 627.577 139.808 625.812 142.747C620.85 150.963 606.831 158.951 597.773 158.723C595.368 158.675 591.165 157.717 588.445 156.613ZM610.774 86.1798C608.921 74.8794 602.941 68.531 595.769 70.2358C590.19 71.5834 586.019 75.3015 583.798 80.968C580.114 90.3201 580.558 90.6448 596.766 90.6448H611.511L610.774 86.1798ZM733.847 154.794C722.851 149.647 720.575 141.026 719.882 101.685L719.373 72.9473L714.888 72.4602L710.402 71.9731L710.077 61.0136L709.763 50.0541L713.869 50.0217C716.134 50.0217 718.55 49.4696 719.232 48.804C719.915 48.1545 720.803 42.5043 721.215 36.2533C722.385 18.296 721.854 19.2053 731.063 19.2053H739.112V33.7529V48.3006L748.592 48.7715L758.072 49.2423V60.6077V71.9731L748.592 72.444L739.112 72.9148L739.123 95.1747C739.123 129.433 740.737 134.158 751.68 132.242C755.157 131.625 757.671 131.885 758.082 132.892C758.462 133.817 759.047 138.558 759.382 143.445L760 152.326L756.089 154.762C751.3 157.766 740.239 157.782 733.847 154.794ZM393.512 84.3127V12.7107L411.117 12.7432C444.604 12.7919 457.366 21.251 466.185 49.2423C469.869 60.9324 471.916 78.4189 471.017 90.6448C469.359 113.278 462.079 134.434 452.719 143.802C443.705 152.83 438.635 154.356 414.908 155.184L393.512 155.931V84.3127ZM436.988 125.066C441.863 121.25 443.304 119.01 446.045 110.973C449.089 102.059 449.306 100.24 449.306 83.4521C449.306 69.0343 448.905 64.3583 447.291 59.7959C442.405 46.0763 435.829 39.7116 424.735 37.9744C412.297 36.0098 413.012 33.2009 413.012 83.9392C413.012 107.871 413.338 127.94 413.738 128.524C414.128 129.125 418.224 129.612 422.817 129.612C429.87 129.612 432.091 128.897 436.988 125.066ZM483.108 154.567C482.696 153.934 482.349 130.245 482.349 101.929V50.4276L484.787 49.4534C489.424 47.5862 499.369 48.3493 500.648 50.6549C501.525 52.2298 501.796 67.5893 501.59 103.829L501.309 154.778L492.587 155.249C487.799 155.509 483.53 155.2 483.108 154.567ZM516.649 142.26C515.739 124.822 515.739 76.7953 516.639 60.7863L517.343 48.3006L525.024 48.7715L532.716 49.2423L533.615 57.7664C534.114 62.4587 534.85 66.2742 535.251 66.2417C535.652 66.2255 537.136 63.3841 538.555 59.9258C542.131 51.2394 548.089 46.4984 554.644 47.1154C559.476 47.5862 559.833 47.9272 560.18 52.4409C560.375 55.0874 560.223 61.0461 559.844 65.6572L559.14 74.0351L552.185 74.7008C546.323 75.2691 544.709 76.1133 541.979 80.0263C536.746 87.5437 535.988 93.2913 535.988 125.553L535.977 154.778L526.66 155.249L517.343 155.704L516.649 142.26ZM640.524 81.2115V6.70333L649.332 5.68045C654.175 5.11218 658.595 5.0797 659.158 5.59926C659.754 6.16753 660.079 23.7352 659.938 48.6254C659.797 71.762 659.895 90.9695 660.133 91.3105C660.372 91.6514 665.778 82.2344 672.137 70.3982L683.719 48.8689L692.722 48.6416C697.683 48.4955 702.353 48.9988 703.111 49.7457C704.097 50.7198 701.291 56.7272 693.09 71.21C686.817 82.2669 681.693 91.895 681.693 92.5932C681.693 93.2751 687.489 107.19 694.585 123.507C701.67 139.808 707.109 153.739 706.676 154.437C706.231 155.135 701.324 155.509 695.766 155.249L685.669 154.778L677.749 135.311C673.394 124.595 669.396 115.616 668.876 115.356C668.356 115.097 666.168 118.1 664.023 122.03C660.372 128.703 660.101 130.002 659.797 141.968L659.483 154.778L650.004 155.249L640.524 155.72V81.2115ZM488.189 32.2917C481.396 27.9891 478.958 12.7757 483.877 5.40443C491.114 -5.44139 502.934 1.05311 502.934 15.8606C502.934 27.3721 494.787 36.4644 488.189 32.2917Z" fill="#E8720C"/>
</g>
<defs>
<clipPath id="clip0_3001_2">
<rect width="760" height="200" fill="white"/>
</clipPath>
</defs>
</svg>
