<svg xmlns="http://www.w3.org/2000/svg" xmlns:xlink="http://www.w3.org/1999/xlink" width="844px" height="142px" viewBox="0 0 843.5695225274367 142.4111954537509">
    <g id="9cfe932c-e40e-40c1-9188-0cb988d12d01">
<g style="">
		<g id="9cfe932c-e40e-40c1-9188-0cb988d12d01-child-0">
<path style="stroke: rgb(193,193,193); stroke-opacity: 1.00; stroke-width: 0; stroke-dasharray: none; stroke-linecap: butt; stroke-dashoffset: 0; stroke-linejoin: miter; stroke-miterlimit: 4; fill: rgb(247,244,240); fill-opacity: 1.00; fill-rule: nonzero; opacity: 1;" transform="matrix(1.171981 0 0 1.169379 421.784658 71.205602) matrix(1 0 0 1 -186.64 1.431163)  translate(-173.749644, -63.494353)" d="M 231.12 121.25 C 225.01 119.46 218.54 113.99 217.47 109.72 C 216.28 104.98 217.81 100.45 221.94 96.43 L 225.84 92.65 L 223.42 89.09 C 219.60 83.48 220.31 78.64 225.82 72.74 L 228.39 69.98 L 224.75 66.24 C 219.56 60.90 218.21 55.22 220.38 47.75 C 223.23 37.95 230.94 31.41 240.82 30.42 C 243.39 30.16 253.60 30.30 263.50 30.73 L 281.50 31.50 L 281.84 33.91 C 282.03 35.23 281.88 38.31 281.51 40.75 L 280.85 45.20 L 276.92 44.82 L 273.00 44.45 L 273.00 51.76 C 273.00 60.55 271.52 64.46 266.54 68.83 C 261.22 73.50 258.81 74.27 247.50 74.92 C 238.19 75.46 237.48 75.65 237.19 77.68 C 236.71 81.03 239.42 81.83 253.58 82.50 C 260.68 82.83 268.42 83.59 270.76 84.19 C 278.64 86.18 283.07 93.93 281.59 103.15 C 280.17 112.05 274.55 117.51 263.23 121.01 C 255.18 123.50 239.15 123.62 231.12 121.25 z M 1.00 45.00 L 18.91 45.00 L 19.20 51.75 L 19.50 58.50 L 31.50 58.50 L 31.50 45.50 L 39.30 45.20 L 46.09 44.91 L 45.80 38.70 L 45.50 32.50 L 31.50 32.50 L 31.50 19.50 L 19.50 19.50 L 19.20 25.75 L 18.90 32.00 L 0.50 31.79 L 0.50 25.75 C 0.50 23.96 0.50 21.13 0.50 18.40 C 0.50 15.71 0.50 9.50 0.50 9.50 L 20.00 9.51 C 36.53 9.51 40.33 9.80 44.95 11.40 C 51.98 13.84 59.08 20.44 62.04 27.29 C 65.17 34.54 65.20 46.50 62.10 53.52 C 59.52 59.36 54.02 65.39 48.80 68.08 C 44.34 70.38 32.57 72.22 25.00 71.80 L 19.50 71.50 L 18.94 97.00 L 1.00 97.00 z M 169.43 96.25 C 161.26 93.32 155.76 88.06 151.73 79.33 C 149.86 75.28 149.51 72.80 149.54 64.00 C 149.57 54.95 149.91 52.81 152.01 48.50 C 157.51 37.24 167.32 30.97 180.65 30.22 C 187.76 29.82 189.48 30.07 194.15 32.21 C 205.21 37.27 210.87 46.40 211.76 60.59 L 212.28 69.00 L 190.20 69.00 C 178.05 69.00 167.87 69.39 167.58 69.88 C 167.28 70.36 168.06 72.72 169.31 75.13 C 172.03 80.34 178.31 84.01 184.46 83.98 C 186.68 83.96 191.20 82.80 194.50 81.40 C 197.80 80.00 201.14 78.77 201.92 78.67 C 202.70 78.58 204.69 80.41 206.35 82.74 L 209.37 86.98 L 207.10 89.39 C 205.86 90.71 202.08 93.04 198.71 94.55 C 190.56 98.21 177.08 98.99 169.43 96.25 z M 306.50 96.67 C 300.75 94.79 294.56 90.41 291.63 86.17 C 286.58 78.85 285.57 75.18 285.55 64.00 C 285.53 51.93 287.11 47.20 293.57 40.05 C 299.60 33.38 305.83 30.71 316.50 30.22 C 325.15 29.82 325.76 29.94 332.00 33.17 C 342.57 38.65 347.00 47.33 347.00 62.55 L 347.00 69.00 L 325.56 69.00 C 313.77 69.00 303.88 69.38 303.59 69.85 C 302.70 71.29 307.33 79.26 310.33 81.44 C 314.65 84.59 324.76 84.25 332.10 80.70 C 335.17 79.22 337.91 78.00 338.18 78.00 C 338.44 78.00 340.13 80.05 341.93 82.56 C 345.10 86.96 345.15 87.18 343.43 89.08 C 342.45 90.16 338.73 92.48 335.17 94.23 C 329.57 97.00 327.49 97.46 319.60 97.70 C 314.04 97.87 308.94 97.47 306.50 96.67 z M 78.50 45.50 L 69.00 44.89 L 69.00 32.11 L 78.50 31.50 L 79.04 23.96 C 79.74 14.11 82.18 10.04 89.56 6.43 C 94.51 4.00 95.83 3.80 103.76 4.19 C 114.94 4.74 117.14 5.83 116.02 10.24 C 115.57 12.03 114.91 14.75 114.57 16.28 C 113.96 18.98 113.81 19.04 108.99 18.40 C 101.87 17.46 98.30 19.18 96.95 24.19 C 95.11 31.02 95.54 31.46 104.26 31.79 L 112.00 32.08 L 112.00 44.92 L 96.50 45.50 L 95.97 97.00 L 79.03 97.00 z M 129.44 96.99 C 125.30 95.71 122.02 91.98 120.94 87.35 C 120.45 85.23 120.04 65.84 120.02 44.25 L 120.00 5.00 L 138.00 5.00 L 138.00 42.88 C 138.00 75.42 137.97 81.11 140.44 82.56 C 140.99 82.89 141.67 83.00 142.50 83.15 C 144.13 83.45 144.67 84.69 145.39 89.78 C 145.88 93.23 146.02 96.31 145.70 96.63 C 144.64 97.69 132.57 97.96 129.44 96.99 z M 258.28 108.64 C 262.38 106.90 265.28 103.67 264.83 101.33 C 264.24 98.28 259.25 96.77 248.03 96.24 L 237.35 95.73 L 235.18 98.50 C 231.61 103.04 232.86 106.42 239.02 108.88 C 242.70 110.35 254.59 110.20 258.28 108.64 z M 254.08 60.08 C 256.44 57.71 257.00 56.29 257.00 52.67 C 257.00 48.88 256.52 47.77 253.92 45.59 C 248.68 41.18 241.45 42.30 238.51 47.98 C 233.13 58.39 245.87 68.29 254.08 60.08 z M 193.82 56.45 C 195.64 55.84 194.40 52.17 191.22 48.77 C 186.25 43.46 178.10 42.78 172.48 47.19 C 169.78 49.32 166.53 55.43 167.37 56.80 C 167.83 57.53 191.50 57.22 193.82 56.45 z M 330.00 54.40 C 330.00 51.26 324.51 45.42 320.65 44.45 C 313.97 42.77 305.85 47.32 304.05 53.75 L 303.14 57.00 L 330.00 57.00 z" stroke-linecap="round"></path>
</g>
		<g id="9cfe932c-e40e-40c1-9188-0cb988d12d01-child-1">
<path style="stroke: rgb(193,193,193); stroke-opacity: 1.00; stroke-width: 0; stroke-dasharray: none; stroke-linecap: butt; stroke-dashoffset: 0; stroke-linejoin: miter; stroke-miterlimit: 4; fill: rgb(232,114,12); fill-opacity: 1.00; fill-rule: nonzero; opacity: 1;" transform="matrix(1.171981 0 0 1.169379 421.784658 71.205602) matrix(1 0 0 1 190.750355 -12.011041)  translate(-551.14, -50.052151)" d="M 561.93 97.63 C 555.87 96.00 548.86 91.80 545.45 87.77 C 531.42 71.19 536.06 42.92 554.35 33.57 C 559.13 31.13 561.68 30.54 568.88 30.19 C 576.31 29.84 578.38 30.11 582.84 32.03 C 593.34 36.54 600.00 48.42 600.00 62.61 L 600.00 69.00 L 578.17 69.00 C 566.16 69.00 556.07 69.26 555.75 69.59 C 555.43 69.91 555.61 71.46 556.17 73.04 C 557.61 77.20 564.21 82.76 568.68 83.60 C 573.71 84.54 581.85 82.75 586.83 79.60 L 590.86 77.06 L 594.50 82.13 C 597.96 86.96 598.05 87.28 596.42 89.09 C 591.84 94.15 578.90 99.07 570.54 98.93 C 568.32 98.90 564.44 98.31 561.93 97.63 Z M 582.54 54.25 C 580.83 47.29 575.31 43.38 568.69 44.43 C 563.54 45.26 559.69 47.55 557.64 51.04 C 554.24 56.80 554.65 57.00 569.61 57.00 L 583.22 57.00 L 582.54 54.25 Z M 696.14 96.51 C 685.99 93.34 683.89 88.03 683.25 63.80 L 682.78 46.10 L 678.64 45.80 L 674.50 45.50 L 674.20 38.75 L 673.91 32.00 L 677.70 31.98 C 679.79 31.98 682.02 31.64 682.65 31.23 C 683.28 30.83 684.10 27.35 684.48 23.50 C 685.56 12.44 685.07 13.00 693.57 13.00 L 701.00 13.00 L 701.00 21.96 L 701.00 30.92 L 709.75 31.21 L 718.50 31.50 L 718.50 38.50 L 718.50 45.50 L 709.75 45.79 L 701.00 46.08 L 701.01 59.79 C 701.01 80.89 702.50 83.80 712.60 82.62 C 715.81 82.24 718.13 82.40 718.51 83.02 C 718.86 83.59 719.40 86.51 719.71 89.52 L 720.28 94.99 L 716.67 96.49 C 712.25 98.34 702.04 98.35 696.14 96.51 Z M 382.00 53.10 L 382.00 9.00 L 398.25 9.02 C 429.16 9.05 440.94 14.26 449.08 31.50 C 452.48 38.70 454.37 49.47 453.54 57.00 C 452.01 70.94 445.29 83.97 436.65 89.74 C 428.33 95.30 423.65 96.24 401.75 96.75 L 382.00 97.21 L 382.00 53.10 Z M 422.13 78.20 C 426.63 75.85 427.96 74.47 430.49 69.52 C 433.30 64.03 433.50 62.91 433.50 52.57 C 433.50 43.69 433.13 40.81 431.64 38.00 C 427.13 29.55 421.06 25.63 410.82 24.56 C 399.34 23.35 400.00 21.62 400.00 52.87 C 400.00 67.61 400.30 79.97 400.67 80.33 C 401.03 80.70 404.81 81.00 409.05 81.00 C 415.56 81.00 417.61 80.56 422.13 78.20 Z M 464.70 96.37 C 464.32 95.98 464.00 81.39 464.00 63.95 L 464.00 32.23 L 466.25 31.63 C 470.53 30.48 479.71 30.95 480.89 32.37 C 481.70 33.34 481.95 42.80 481.76 65.12 L 481.50 96.50 L 473.45 96.79 C 469.03 96.95 465.09 96.76 464.70 96.37 Z M 495.66 88.79 C 494.82 78.05 494.82 48.47 495.65 38.61 L 496.30 30.92 L 503.39 31.21 L 510.49 31.50 L 511.32 36.75 C 511.78 39.64 512.46 41.99 512.83 41.97 C 513.20 41.96 514.57 40.21 515.88 38.08 C 519.18 32.73 524.68 29.81 530.73 30.19 C 535.19 30.48 535.52 30.69 535.84 33.47 C 536.02 35.10 535.88 38.77 535.53 41.61 L 534.88 46.77 L 528.46 47.18 C 523.05 47.53 521.56 48.05 519.04 50.46 C 514.21 55.09 513.51 58.63 513.51 78.50 L 513.50 96.50 L 504.90 96.79 L 496.30 97.07 L 495.66 88.79 Z M 610.00 51.19 L 610.00 5.30 L 618.13 4.67 C 622.60 4.32 626.68 4.30 627.20 4.62 C 627.75 4.97 628.05 15.79 627.92 31.12 C 627.79 45.37 627.88 57.20 628.10 57.41 C 628.32 57.62 633.31 51.82 639.18 44.53 L 649.87 31.27 L 658.18 31.13 C 662.76 31.04 667.07 31.35 667.77 31.81 C 668.68 32.41 666.09 36.11 658.52 45.03 C 652.73 51.84 648.00 57.77 648.00 58.20 C 648.00 58.62 653.35 67.19 659.90 77.24 C 666.44 87.28 671.46 95.86 671.06 96.29 C 670.65 96.72 666.12 96.95 660.99 96.79 L 651.67 96.50 L 644.36 84.51 C 640.34 77.91 636.65 72.38 636.17 72.22 C 635.69 72.06 633.67 73.91 631.69 76.33 C 628.32 80.44 628.07 81.24 627.79 88.61 L 627.50 96.50 L 618.75 96.79 L 610.00 97.08 L 610.00 51.19 Z M 469.39 21.06 C 463.12 18.41 460.87 9.04 465.41 4.50 C 472.09 -2.18 483.00 1.82 483.00 10.94 C 483.00 18.03 475.48 23.63 469.39 21.06 Z" stroke-linecap="round"></path>
</g>
</g>
</g>

  </svg>
