<svg xmlns="http://www.w3.org/2000/svg" xmlns:xlink="http://www.w3.org/1999/xlink" width="2062px" height="544px" viewBox="0 0 2061.646979193705 543.5908664763565">
    <g id="ea45f147-bd12-4ab2-8701-7e94f3b3753f">
<g style="">
		<g id="ea45f147-bd12-4ab2-8701-7e94f3b3753f-child-0">
<path style="stroke: rgb(193,193,193); stroke-opacity: 1.00; stroke-width: 0; stroke-dasharray: none; stroke-linecap: butt; stroke-dashoffset: 0; stroke-linejoin: miter; stroke-miterlimit: 4; fill: rgb(232,114,12); fill-opacity: 1.00; fill-rule: nonzero; opacity: 1;" transform="matrix(1.03391 0 0 1.033179 1030.823778 271.795309) matrix(1 0 0 1 521.013752 -54.042177)  translate(-1518.028752, -208.890814)" d="M 1043.32 409.73 C 1042.90 409.06 1042.37 324.20 1042.16 221.17 C 1041.86 79.40 1042.05 33.55 1042.93 32.67 C 1043.75 31.85 1052.70 31.39 1072.80 31.14 C 1164.58 30.00 1199.50 45.28 1223.98 97.29 C 1239.46 130.17 1248.00 175.27 1247.97 224.00 C 1247.95 268.56 1239.07 312.70 1223.51 345.63 C 1215.92 361.70 1210.04 370.25 1199.13 381.04 C 1191.37 388.72 1187.74 391.49 1180.44 395.24 C 1162.63 404.40 1147.08 407.29 1107.00 408.90 C 1057.64 410.89 1044.16 411.07 1043.32 409.73 Z M 1694.33 371.40 C 1694.70 349.45 1695.00 260.54 1695.00 173.82 C 1695.00 24.52 1695.09 16.11 1696.75 15.59 C 1701.28 14.18 1713.98 12.90 1729.09 12.33 C 1744.73 11.74 1745.72 11.81 1746.53 13.60 C 1747.00 14.65 1747.64 65.68 1747.94 127.00 L 1748.50 238.50 L 1757.60 222.50 C 1762.60 213.70 1773.15 194.80 1781.05 180.50 C 1788.95 166.20 1798.82 148.43 1802.99 141.00 L 1810.57 127.50 L 1830.53 127.20 C 1851.97 126.87 1859.80 127.40 1862.46 129.34 C 1863.93 130.42 1863.99 131.16 1862.95 135.27 C 1862.30 137.85 1849.22 163.17 1833.89 191.53 C 1818.55 219.90 1806.00 243.37 1806.00 243.69 C 1806.00 244.26 1813.66 263.91 1823.67 289.00 C 1862.01 385.17 1868.28 401.76 1867.80 405.85 C 1867.54 408.08 1866.85 408.58 1863.00 409.29 C 1856.00 410.58 1814.95 409.13 1812.40 407.50 C 1811.25 406.76 1809.26 403.30 1807.99 399.83 C 1800.74 379.98 1778.24 324.14 1772.46 311.64 L 1769.76 305.79 L 1767.42 308.14 C 1760.03 315.60 1751.15 335.37 1749.07 349.00 C 1747.82 357.23 1746.00 384.89 1746.00 395.67 C 1746.00 401.52 1746.28 404.73 1744.83 406.55 C 1742.83 409.03 1737.57 408.90 1723.84 409.36 C 1712.65 409.73 1701.29 410.32 1698.58 410.67 L 1693.67 411.30 Z M 1564.09 415.95 C 1550.49 412.39 1538.77 404.71 1524.83 390.20 C 1507.04 371.71 1498.17 352.88 1490.87 318.09 C 1488.10 304.91 1487.76 301.23 1487.30 280.00 C 1486.87 259.74 1487.09 254.22 1488.95 240.02 C 1491.51 220.36 1493.94 208.97 1498.44 195.50 C 1514.16 148.43 1544.30 122.00 1582.27 122.00 C 1608.25 122.00 1627.43 134.37 1643.18 161.29 C 1652.88 177.88 1661.12 204.04 1664.51 229.00 C 1665.47 236.11 1666.43 251.74 1666.73 265.25 L 1667.27 289.00 L 1627.38 289.01 C 1589.72 289.01 1546.77 290.34 1542.61 291.63 C 1540.93 292.16 1540.79 292.94 1541.32 298.86 C 1542.82 315.79 1549.51 330.54 1560.88 342.02 C 1570.81 352.04 1576.45 354.40 1589.00 353.76 C 1602.86 353.05 1616.75 345.88 1631.62 331.76 C 1635.53 328.04 1639.24 325.00 1639.86 325.00 C 1640.99 325.00 1650.05 342.35 1655.90 355.75 C 1661.62 368.82 1660.02 374.93 1647.85 386.58 C 1633.10 400.70 1612.54 413.02 1598.00 416.44 C 1588.88 418.59 1573.31 418.36 1564.09 415.95 Z M 1959.50 413.97 C 1944.47 412.11 1932.33 406.28 1923.05 396.46 C 1914.56 387.48 1909.95 374.65 1906.38 350.00 C 1904.98 340.36 1904.64 326.77 1904.28 265.81 C 1903.95 211.93 1903.54 192.87 1902.67 192.16 C 1902.03 191.64 1896.88 190.78 1891.22 190.25 C 1885.57 189.71 1880.74 189.08 1880.50 188.83 C 1880.25 188.58 1879.74 175.65 1879.36 160.10 C 1878.78 136.30 1878.90 131.68 1880.09 130.92 C 1880.86 130.43 1884.20 130.00 1887.50 129.97 C 1894.56 129.90 1901.75 128.65 1903.16 127.24 C 1905.31 125.09 1907.56 109.41 1910.53 76.00 C 1911.44 65.82 1912.70 56.42 1913.34 55.09 C 1913.98 53.76 1915.77 51.74 1917.32 50.59 C 1919.89 48.68 1921.73 48.47 1938.22 48.19 C 1952.34 47.94 1956.48 48.16 1957.14 49.19 C 1957.59 49.91 1957.98 67.01 1957.98 87.19 C 1958.00 113.19 1958.33 124.08 1959.12 124.57 C 1959.74 124.96 1967.84 125.73 1977.12 126.29 L 1994.00 127.32 L 1994.00 190.00 L 1988.75 190.14 C 1985.86 190.21 1978.10 190.55 1971.50 190.89 L 1959.50 191.50 L 1958.85 197.00 C 1957.75 206.26 1957.91 311.81 1959.03 321.03 C 1960.51 333.11 1963.40 341.27 1967.49 344.85 C 1971.59 348.45 1976.56 349.40 1986.50 348.47 L 1994.03 347.76 L 1993.76 379.61 L 1993.50 411.45 L 1988.12 412.65 C 1980.32 414.38 1967.56 414.97 1959.50 413.97 Z M 1137.91 339.46 C 1160.29 334.18 1178.23 313.21 1185.35 284.00 C 1189.30 267.80 1190.20 259.27 1190.72 233.50 C 1191.85 176.42 1185.51 146.40 1167.32 122.76 C 1158.47 111.26 1146.28 103.99 1129.50 100.20 C 1110.91 95.99 1104.40 96.40 1101.52 101.96 C 1097.29 110.13 1096.02 137.50 1096.11 218.50 C 1096.18 283.58 1097.04 337.37 1098.03 338.36 C 1098.94 339.28 1113.30 340.74 1122.50 340.86 C 1127.46 340.92 1134.37 340.29 1137.91 339.46 Z M 1365.59 407.80 C 1362.72 393.67 1361.04 252.98 1362.99 188.63 C 1363.67 166.01 1364.52 143.00 1364.86 137.50 L 1365.50 127.50 L 1375.50 127.23 C 1381.00 127.09 1390.22 127.31 1396.00 127.73 L 1406.50 128.50 L 1407.19 132.50 C 1407.57 134.70 1408.61 143.85 1409.51 152.84 C 1411.13 169.14 1411.63 172.00 1412.87 172.00 C 1413.23 172.00 1416.80 165.19 1420.80 156.87 C 1427.05 143.87 1428.96 140.86 1434.29 135.54 C 1441.35 128.50 1448.48 124.73 1457.93 123.01 C 1464.88 121.75 1469.97 122.28 1473.56 124.63 C 1476.47 126.54 1477.14 128.16 1478.07 135.50 C 1479.02 143.07 1477.06 192.07 1475.74 193.75 C 1475.18 194.47 1472.51 195.00 1469.51 195.00 C 1461.84 195.00 1447.15 197.77 1442.23 200.14 C 1431.81 205.16 1423.80 217.81 1420.14 235.00 C 1416.36 252.82 1415.85 265.97 1416.18 338.10 C 1416.39 383.01 1416.15 407.22 1415.50 407.83 C 1414.95 408.34 1403.60 409.06 1390.28 409.43 L 1366.06 410.10 Z M 1278.50 409.12 C 1275.53 408.50 1275.49 408.40 1274.74 399.99 C 1274.31 395.32 1273.71 333.10 1273.40 261.73 L 1272.83 131.96 L 1277.66 129.75 C 1281.80 127.86 1284.63 127.48 1297.18 127.18 C 1313.05 126.79 1322.06 128.34 1323.86 131.77 C 1324.36 132.72 1325.06 147.00 1325.41 163.50 C 1326.25 202.09 1324.55 406.88 1323.38 407.94 C 1322.28 408.94 1282.60 409.99 1278.50 409.12 Z M 1290.76 86.00 C 1269.34 79.55 1259.55 42.55 1272.50 17.00 C 1275.31 11.45 1282.03 4.53 1287.16 1.92 C 1292.29 -0.70 1309.69 -0.85 1313.79 1.68 C 1326.37 9.45 1333.32 23.61 1333.33 41.50 C 1333.36 68.39 1319.61 87.17 1300.09 86.91 C 1296.47 86.87 1292.27 86.46 1290.76 86.00 Z M 1615.00 234.75 C 1615.00 229.57 1610.31 211.63 1607.17 204.78 C 1603.54 196.86 1597.30 189.81 1591.42 186.96 C 1587.57 185.10 1585.64 184.82 1579.14 185.20 C 1569.73 185.74 1562.95 189.04 1556.52 196.19 C 1550.85 202.50 1544.40 215.73 1542.31 225.33 C 1540.81 232.27 1540.79 233.22 1542.16 234.59 C 1544.74 237.17 1552.29 237.76 1584.25 237.88 L 1615.00 238.00 Z" stroke-linecap="round"></path>
</g>
		<g id="ea45f147-bd12-4ab2-8701-7e94f3b3753f-child-1">
<path style="stroke: rgb(193,193,193); stroke-opacity: 1.00; stroke-width: 0; stroke-dasharray: none; stroke-linecap: butt; stroke-dashoffset: 0; stroke-linejoin: miter; stroke-miterlimit: 4; fill: rgb(247,244,240); fill-opacity: 1.00; fill-rule: nonzero; opacity: 1;" transform="matrix(1.03391 0 0 1.033179 1030.823778 271.795309) matrix(1 0 0 1 -0.015 7.660718)  translate(-997, -270.59371)" d="M 406.21 518.75 L 406.50 511.50 L 515.50 511.26 L 624.50 511.01 L 631.25 517.76 C 634.97 521.47 638.31 524.84 638.67 525.25 C 639.04 525.66 586.81 526.00 522.62 526.00 L 405.91 526.00 L 406.21 518.75 Z M 667.00 522.67 C 651.82 516.23 643.15 509.96 635.69 500.04 C 625.89 487.00 621.66 474.04 621.65 457.00 C 621.64 440.04 625.82 428.27 639.12 407.88 L 646.38 396.76 L 642.28 389.13 C 636.36 378.09 633.91 369.33 633.30 357.00 C 632.42 339.50 637.21 324.02 648.47 307.95 C 651.51 303.61 654.00 299.81 654.00 299.50 C 654.00 299.18 651.77 296.02 649.04 292.46 C 635.03 274.18 629.56 259.51 628.34 236.92 C 626.56 203.99 637.94 168.34 656.74 147.98 C 664.16 139.95 670.39 135.75 680.24 132.15 C 687.32 129.56 688.05 129.50 710.00 129.58 C 722.38 129.62 739.03 130.19 747.00 130.84 C 754.97 131.50 771.72 132.44 784.22 132.94 C 796.72 133.44 807.47 134.17 808.12 134.57 C 809.00 135.12 809.13 140.85 808.61 157.40 C 807.85 181.62 807.00 190.40 805.25 192.15 C 804.39 193.01 801.86 192.99 795.09 192.07 C 790.13 191.39 785.55 191.16 784.91 191.56 C 784.06 192.08 783.93 195.84 784.42 205.39 C 785.68 229.94 782.30 257.76 775.91 275.43 C 772.20 285.68 762.89 300.11 755.98 306.33 C 746.51 314.84 733.71 319.01 711.00 320.99 C 695.86 322.31 692.61 322.83 687.71 324.76 C 678.84 328.25 678.81 341.31 687.67 345.83 C 693.84 348.98 709.28 351.78 727.00 352.99 C 762.27 355.38 772.89 357.39 782.53 363.50 C 810.36 381.15 817.72 441.80 796.91 482.00 C 786.74 501.66 770.54 514.75 746.31 522.91 L 737.12 526.00 L 705.81 525.92 L 674.50 525.85 L 667.00 522.67 Z M 725.55 470.11 C 734.94 468.17 742.61 464.88 747.65 460.64 C 754.28 455.06 758.63 441.78 756.89 432.45 C 754.59 420.15 745.93 416.65 708.84 413.03 C 697.65 411.94 686.83 410.76 684.78 410.40 L 681.06 409.75 L 677.68 417.17 C 675.82 421.26 673.27 427.67 672.02 431.43 C 662.77 459.23 688.42 477.77 725.55 470.11 Z M 716.56 267.40 C 729.32 261.35 737.66 239.86 735.16 219.43 C 732.44 197.17 722.92 185.08 708.07 185.02 C 690.97 184.95 681.08 202.49 682.23 230.84 C 682.93 247.95 687.27 257.65 697.86 265.72 C 701.51 268.51 702.98 269.00 707.68 269.00 C 710.71 269.00 714.71 268.28 716.56 267.40 Z M 781.00 525.17 C 781.00 524.72 784.40 521.34 788.56 517.67 L 796.12 511.00 L 1198.31 511.25 L 1600.50 511.50 L 1600.79 518.75 L 1601.09 526.00 L 1191.04 526.00 C 965.52 526.00 781.00 525.63 781.00 525.17 Z M 221.25 490.34 C 219.69 489.71 219.48 471.44 221.02 470.49 C 222.24 469.73 605.73 469.39 606.48 470.14 C 607.16 470.83 611.19 485.94 611.36 488.50 C 611.50 490.49 610.83 490.50 417.00 490.67 C 310.02 490.77 221.94 490.62 221.25 490.34 Z M 812.48 489.75 C 812.24 489.06 813.57 484.45 815.44 479.50 C 818.48 471.50 819.16 470.45 821.68 470.00 C 823.23 469.73 1040.95 469.73 1305.50 470.00 L 1786.50 470.50 L 1786.79 479.48 C 1787.04 487.07 1786.81 488.66 1785.35 489.73 C 1782.81 491.59 813.16 491.61 812.48 489.75 Z M 5.25 449.26 L 0.00 448.90 L 0.00 439.55 L 0.00 430.21 L 8.75 429.71 C 22.22 428.96 607.74 429.41 608.51 430.18 C 608.88 430.55 608.61 434.90 607.91 439.86 C 606.82 447.54 606.33 448.94 604.57 449.42 C 602.33 450.02 13.90 449.87 5.25 449.26 Z M 825.75 449.31 C 824.26 448.92 824.00 447.63 824.02 440.68 C 824.02 436.18 824.46 431.83 824.98 431.00 C 825.82 429.67 891.43 429.47 1403.71 429.20 C 1721.50 429.03 1984.31 429.18 1987.75 429.52 L 1994.00 430.16 L 1994.00 439.45 L 1994.00 448.75 L 1990.88 449.38 C 1987.34 450.08 828.46 450.02 825.75 449.31 Z M 502.50 418.50 C 494.38 416.69 488.58 414.51 482.01 410.83 C 452.37 394.19 433.44 358.89 427.93 310.00 C 426.42 296.61 426.43 256.68 427.95 243.00 C 432.43 202.54 445.50 171.93 467.43 150.50 C 484.07 134.23 500.82 127.03 522.00 127.03 C 539.37 127.03 552.85 132.02 566.12 143.33 C 585.55 159.92 598.67 187.22 604.91 224.11 C 608.43 244.89 610.27 293.06 607.64 295.69 C 607.20 296.14 583.58 296.56 555.17 296.64 C 506.52 296.77 483.88 297.72 481.89 299.71 C 480.54 301.06 483.86 316.69 487.27 325.00 C 498.00 351.14 514.33 362.12 535.78 357.62 C 546.33 355.41 558.06 349.29 575.20 337.04 C 579.10 334.26 580.17 333.89 581.42 334.94 C 584.83 337.77 601.00 368.44 601.00 372.08 C 601.00 376.12 597.50 381.54 589.52 389.87 C 574.68 405.37 558.95 414.24 538.68 418.55 C 530.24 420.35 510.64 420.32 502.50 418.50 Z M 553.25 242.19 C 555.69 241.18 556.00 240.53 556.00 236.42 C 556.00 220.70 543.49 198.45 531.21 192.35 C 525.76 189.64 512.90 189.81 507.50 192.68 C 495.35 199.12 485.81 215.21 481.90 235.85 C 480.90 241.15 480.93 242.35 482.10 243.14 C 484.15 244.53 549.75 243.65 553.25 242.19 Z M 892.50 418.56 C 858.61 410.66 834.02 382.20 823.47 338.69 C 818.38 317.70 817.50 308.63 817.53 277.50 C 817.55 247.73 818.29 238.29 822.13 219.00 C 829.74 180.74 849.58 150.05 876.00 135.70 C 886.01 130.26 894.92 127.88 907.60 127.27 C 929.23 126.23 944.97 132.29 960.29 147.57 C 979.42 166.63 991.13 198.20 994.99 241.09 C 996.22 254.69 996.24 293.07 995.02 295.00 C 994.20 296.30 987.31 296.52 943.79 296.62 C 894.79 296.74 873.90 297.70 871.66 299.94 C 870.16 301.44 873.19 315.96 877.13 326.19 C 882.99 341.38 893.36 352.96 904.38 356.62 C 910.80 358.76 923.40 358.68 930.23 356.46 C 938.38 353.81 951.74 346.61 959.89 340.46 C 970.04 332.81 970.97 333.02 977.14 344.50 C 983.95 357.17 989.00 369.59 989.00 373.67 C 989.00 378.02 984.85 384.21 976.01 393.06 C 965.04 404.03 949.08 413.43 934.50 417.51 C 926.22 419.83 900.68 420.47 892.50 418.56 Z M 925.00 243.99 C 945.42 242.62 945.00 242.76 945.00 237.58 C 945.00 226.85 938.34 209.44 930.90 200.74 C 922.72 191.18 911.35 187.73 900.22 191.43 C 886.86 195.87 873.40 216.87 871.40 236.41 C 870.60 244.22 869.89 243.88 887.50 244.29 C 894.10 244.44 901.97 244.66 905.00 244.77 C 908.03 244.88 917.03 244.53 925.00 243.99 Z M 376.75 417.91 C 357.55 413.39 347.22 395.74 344.01 362.00 C 342.50 346.15 341.44 24.09 342.89 22.00 C 343.77 20.73 347.97 20.50 370.21 20.50 L 396.50 20.50 L 397.08 176.50 C 397.69 338.60 397.88 345.50 401.89 351.00 C 402.89 352.38 405.57 354.19 407.84 355.04 C 410.11 355.88 412.41 357.01 412.94 357.54 C 414.49 359.09 417.08 381.15 417.71 398.14 L 418.29 413.77 L 415.94 415.03 C 409.07 418.71 387.00 420.33 376.75 417.91 Z M 0.67 415.33 C 0.30 414.97 0.00 362.05 0.00 297.75 L 0.00 180.83 L 26.54 181.16 C 48.78 181.45 53.23 181.74 54.02 183.00 C 54.57 183.86 54.98 198.00 54.98 216.21 C 55.00 246.54 55.08 247.98 56.93 248.96 C 59.77 250.48 92.27 250.33 93.80 248.80 C 94.68 247.92 95.00 239.10 95.00 215.36 C 95.00 190.66 95.29 182.93 96.25 182.32 C 96.94 181.88 108.74 181.37 122.48 181.19 C 140.24 180.96 147.70 180.52 148.28 179.68 C 148.72 179.03 148.95 171.84 148.79 163.71 C 148.55 151.92 148.18 148.73 146.99 147.97 C 146.17 147.45 134.91 147.02 121.83 147.02 C 108.81 147.01 97.45 146.73 96.58 146.39 C 95.19 145.86 95.00 142.33 94.99 117.14 C 94.98 101.39 94.70 87.49 94.37 86.25 C 93.77 84.02 93.62 84.00 74.99 84.00 C 58.79 84.00 56.13 84.22 55.61 85.58 C 55.27 86.45 55.00 100.42 55.00 116.61 C 55.00 139.28 54.71 146.16 53.75 146.49 C 53.06 146.72 40.69 147.05 26.25 147.21 L 0.00 147.50 L 0.00 93.81 L 0.00 40.12 L 4.40 39.46 C 6.82 39.10 30.10 39.01 56.15 39.26 C 100.06 39.69 104.09 39.88 111.61 41.81 C 158.54 53.91 185.00 101.12 185.00 172.75 C 185.00 227.53 167.00 273.14 137.64 292.78 C 123.18 302.45 99.39 308.00 72.43 308.00 L 56.20 308.00 L 55.62 320.25 C 55.30 326.99 54.75 350.95 54.41 373.50 C 54.07 396.05 53.59 414.84 53.34 415.25 C 52.77 416.18 1.59 416.26 0.67 415.33 Z M 225.64 415.22 C 224.86 413.96 224.05 363.25 223.44 276.50 C 223.12 231.95 222.54 195.16 222.14 194.75 C 221.73 194.34 216.48 193.72 210.45 193.37 C 204.43 193.01 198.71 192.32 197.75 191.83 C 196.15 191.01 196.00 188.64 196.00 164.00 C 196.00 139.36 196.15 136.99 197.75 136.17 C 198.71 135.67 203.77 135.02 209.00 134.71 C 219.62 134.10 221.55 133.59 222.50 131.17 C 222.86 130.25 223.80 118.25 224.58 104.50 C 226.99 62.09 231.95 46.88 248.51 31.16 C 261.75 18.57 273.43 14.46 293.50 15.29 C 311.51 16.05 329.67 20.65 332.03 25.06 C 333.29 27.42 333.27 40.19 331.99 49.31 C 328.15 76.70 327.87 77.74 324.19 78.67 C 322.72 79.04 317.25 78.82 312.01 78.20 C 297.60 76.48 289.35 78.96 284.40 86.52 C 281.36 91.15 278.07 103.08 277.03 113.17 C 275.95 123.71 276.36 129.24 278.35 130.87 C 280.77 132.84 288.52 134.10 304.07 135.03 C 312.94 135.57 320.61 136.26 321.10 136.56 C 322.24 137.27 322.29 190.70 321.15 191.41 C 320.68 191.70 311.03 192.47 299.69 193.13 C 288.35 193.79 278.61 194.62 278.04 194.98 C 277.34 195.41 276.72 231.27 276.13 304.69 C 275.66 364.67 274.96 414.26 274.58 414.88 C 273.77 416.18 226.43 416.51 225.64 415.22 Z" stroke-linecap="round"></path>
</g>
</g>
</g>

  </svg>
